<?xml version="1.0" standalone="no"?>
<!DOCTYPE svg PUBLIC "-//W3C//DTD SVG 20010904//EN"
 "http://www.w3.org/TR/2001/REC-SVG-20010904/DTD/svg10.dtd">
<svg version="1.0" xmlns="http://www.w3.org/2000/svg"
 width="300.000000pt" height="300.000000pt" viewBox="0 0 300.000000 300.000000"
 preserveAspectRatio="xMidYMid meet">
<metadata>
Created by potrace 1.10, written by Peter Selinger 2001-2011
</metadata>
<g transform="translate(0.000000,300.000000) scale(0.100000,-0.100000)"
fill="#000000" stroke="none">
<path d="M1854 2312 c-24 -16 -35 -56 -33 -121 2 -69 2 -69 -56 -152 -32 -46
-60 -86 -61 -88 -2 -2 -144 56 -315 129 -300 126 -316 132 -370 128 -43 -3
-66 -11 -94 -32 -63 -48 -90 -136 -64 -203 6 -15 28 -120 48 -233 31 -177 35
-210 24 -240 -8 -24 -12 -120 -12 -297 l-1 -263 -87 0 -88 0 0 -130 0 -130
638 0 637 0 0 130 0 130 -158 0 -159 0 -71 237 c-39 131 -73 258 -77 281 -11
87 -78 180 -159 223 -34 18 -49 33 -60 64 -9 22 -16 44 -16 47 0 4 37 -10 83
-31 45 -21 103 -46 129 -56 27 -10 50 -26 53 -36 10 -30 54 -78 88 -96 43 -22
127 -21 168 3 92 54 123 156 75 248 l-25 49 57 83 c53 78 59 83 93 84 40 0 69
24 69 58 0 21 5 22 73 22 l72 0 -1 57 -1 58 -71 0 c-66 0 -72 2 -72 20 0 11
-7 31 -16 43 -14 20 -23 22 -122 22 -59 0 -112 -4 -118 -8z m211 -132 l0 -95
-97 -3 -98 -3 0 101 0 101 98 -3 97 -3 0 -95z m145 -2 c0 -15 -8 -18 -50 -18
-42 0 -50 3 -50 18 0 15 8 18 50 18 42 0 50 -3 50 -18z m-1110 -23 c89 -46
104 -159 29 -231 -27 -26 -37 -29 -94 -29 -57 0 -67 3 -94 29 -73 70 -62 175
22 226 38 24 97 26 137 5z m335 -140 c123 -52 229 -95 235 -95 19 0 10 -15
-20 -32 -36 -21 -68 -71 -76 -119 l-6 -35 -138 59 -137 59 -35 91 c-37 97 -59
167 -52 167 2 0 105 -43 229 -95z m479 25 l45 0 -52 -74 c-51 -72 -52 -73 -79
-60 -15 8 -38 14 -52 14 -14 0 -27 3 -30 8 -2 4 16 35 40 70 39 53 48 61 64
52 10 -5 39 -10 64 -10z m-660 -200 c25 -63 46 -117 46 -120 0 -3 -26 -4 -58
-2 -78 5 -160 -27 -220 -84 -25 -24 -46 -43 -47 -41 -1 1 -8 42 -15 91 -7 49
-18 113 -25 143 -7 29 -11 53 -8 53 2 0 15 -7 29 -16 32 -22 120 -22 161 -1
33 17 83 71 83 89 0 20 7 5 54 -112z m566 25 c92 -48 104 -164 23 -236 -34
-29 -40 -31 -95 -27 -47 3 -64 10 -88 33 -71 68 -60 175 23 225 38 24 97 26
137 5z m-490 -201 c72 -21 150 -98 175 -173 61 -185 -71 -371 -265 -371 -253
0 -374 297 -195 477 79 78 173 100 285 67z m230 -380 c0 -14 79 -285 96 -329
5 -13 -35 -15 -345 -15 l-351 0 0 134 c0 74 -3 142 -7 152 -4 10 22 -12 58
-48 49 -50 77 -69 119 -83 68 -24 149 -24 218 -1 67 23 154 100 179 161 18 45
33 58 33 29z m415 -474 l0 -90 -592 0 -593 0 0 90 0 90 593 0 593 0 -1 -90z"/>
<path d="M995 2108 c-31 -18 -44 -40 -45 -75 0 -45 9 -62 41 -78 41 -21 72
-18 103 10 19 18 26 34 26 62 -1 72 -67 114 -125 81z m66 -38 c29 -16 26 -67
-5 -81 -34 -16 -66 3 -66 41 0 41 33 60 71 40z"/>
<path d="M1701 1804 c-25 -21 -31 -33 -31 -65 0 -94 121 -123 163 -38 22 45 8
93 -34 114 -40 21 -63 19 -98 -11z m80 -24 c29 -16 26 -67 -5 -81 -50 -23 -90
36 -50 75 18 19 28 20 55 6z"/>
<path d="M1197 1535 c-48 -17 -76 -41 -93 -82 -19 -44 -18 -69 6 -118 37 -77
134 -108 200 -62 55 37 75 72 74 128 -1 56 -23 94 -70 120 -44 25 -75 29 -117
14z m102 -51 c30 -21 51 -71 44 -106 -7 -35 -46 -75 -83 -83 -73 -16 -143 60
-120 130 22 67 104 97 159 59z"/>
</g>
</svg>
